<svg xmlns="http://www.w3.org/2000/svg" width="695.2" height="131.6" viewBox="0 0 695.2 131.6"><g transform="translate(-52.4 -57.5)"><path d="M704.3,62.2A33.2,33.2,0,0,1,719,74.5a34.293,34.293,0,0,1,5.2,18.9,33.379,33.379,0,0,1-5.2,18.8,32.475,32.475,0,0,1-14.7,12.3,55.89,55.89,0,0,1-22.6,4.3H662v27H639.4V57.9h42.4c8.7,0,16.2,1.4,22.6,4.3ZM696,105.9c3.5-2.9,5.3-7.1,5.3-12.5s-1.8-9.7-5.3-12.7c-3.5-2.9-8.7-4.4-15.5-4.4H662v34h18.5C687.3,110.3,692.5,108.8,696,105.9Z" fill="#011935"/><path d="M598.8,155.7,574,122.2l-25,33.5H521.3L559.9,106l-37-48h28.5l75.9,97.7Z" fill="#011935"/><path d="M624.1,57.9l-25,33.5L574.3,57.9Z" fill="#011935"/><path d="M52.4,57.5H66.5v99H52.4Z" fill="#011935"/><path d="M192.7,89c5.5,5.5,8.3,13.6,8.3,24.3v43.1H187.4V114.8c0-7.3-1.7-12.7-5-16.4s-8.1-5.5-14.4-5.5-12.4,2.1-16.4,6.4c-4.1,4.3-6.1,10.4-6.1,18.5v38.6H131.9V114.8c0-7.3-1.7-12.7-5-16.4s-8.1-5.5-14.4-5.5S100.1,95,96.1,99.3C92,103.6,90,109.7,90,117.8v38.6H76.4v-75h13V92.6a25.592,25.592,0,0,1,10.7-8.8,36.344,36.344,0,0,1,15.1-3,35.037,35.037,0,0,1,15.6,3.5,25.413,25.413,0,0,1,10.5,10.3,29.467,29.467,0,0,1,11.8-10.2,37.577,37.577,0,0,1,17-3.7c9.4,0,16.9,2.7,22.4,8.2Z" fill="#011935"/><path d="M270.1,85.6A34.775,34.775,0,0,1,283.6,99a39.415,39.415,0,0,1,4.9,19.9,39.794,39.794,0,0,1-4.9,20,35.027,35.027,0,0,1-13.5,13.5,39.684,39.684,0,0,1-19.5,4.8c-7.2,0-10.3-1-14.8-3.1a30.515,30.515,0,0,1-11.4-9.1v43.7H210.8V81.3h13V93.2a28.512,28.512,0,0,1,11.5-9.4,36.432,36.432,0,0,1,15.3-3.2c5.6,0,13.8,1.6,19.5,4.8Zm-7.7,56.5a24.643,24.643,0,0,0,9.1-9.3,30.5,30.5,0,0,0,0-27.6,23.274,23.274,0,0,0-9.1-9.3,25.273,25.273,0,0,0-12.9-3.3,24.905,24.905,0,0,0-12.8,3.3,24.643,24.643,0,0,0-9.1,9.3,27.776,27.776,0,0,0-3.3,13.7,28.167,28.167,0,0,0,3.3,13.8,23.274,23.274,0,0,0,9.1,9.3,25.8,25.8,0,0,0,12.9,3.3,25.535,25.535,0,0,0,12.9-3.3Z" fill="#011935"/><path d="M371.1,81.5v75h-13V144.6a28.75,28.75,0,0,1-11.5,9.5,35,35,0,0,1-15.3,3.3c-5.6,0-13.8-1.6-19.5-4.8a33.733,33.733,0,0,1-13.5-13.5,39.794,39.794,0,0,1-4.9-20,39.156,39.156,0,0,1,4.9-19.9,34.769,34.769,0,0,1,13.5-13.4A39.413,39.413,0,0,1,331.3,81c7.2,0,10.3,1,14.8,3a28.305,28.305,0,0,1,11.3,9V81.7H371Zm-25.7,60.6a23.274,23.274,0,0,0,9.1-9.3,30.5,30.5,0,0,0,0-27.6,23.274,23.274,0,0,0-9.1-9.3,25.8,25.8,0,0,0-12.9-3.3,25.535,25.535,0,0,0-12.9,3.3,24.643,24.643,0,0,0-9.1,9.3,30.5,30.5,0,0,0,0,27.6,23.274,23.274,0,0,0,9.1,9.3,25.273,25.273,0,0,0,12.9,3.3A25.535,25.535,0,0,0,345.4,142.1Z" fill="#011935"/><path d="M400.3,152.4a36.166,36.166,0,0,1-14.1-13.6,40.6,40.6,0,0,1,0-39.4,36.166,36.166,0,0,1,14.1-13.6,41.6,41.6,0,0,1,20.4-4.9A37.659,37.659,0,0,1,438.9,85a29.06,29.06,0,0,1,12.4,11.9L441,103.5a23.416,23.416,0,0,0-8.8-8.1,25.083,25.083,0,0,0-11.6-2.7A28.369,28.369,0,0,0,407.4,96a23.516,23.516,0,0,0-9.2,9.3,28.167,28.167,0,0,0-3.3,13.8,28.561,28.561,0,0,0,3.3,13.9,23.516,23.516,0,0,0,9.2,9.3,26.394,26.394,0,0,0,13.2,3.3,23.145,23.145,0,0,0,11.6-2.7,23.416,23.416,0,0,0,8.8-8.1l10.3,6.5a29.308,29.308,0,0,1-12.4,12,38.469,38.469,0,0,1-18.2,4.2,43.847,43.847,0,0,1-20.4-4.9Z" fill="#011935"/><path d="M509.2,152.1a20.046,20.046,0,0,1-7.4,3.9,30.346,30.346,0,0,1-9.1,1.3c-7.5,0-13.4-2-17.5-6.1-4.2-4.1-6.2-9.9-6.2-17.4V92.6H456.3V81.4H469V65h13.6V81.4h21.5V92.6H482.6v40.6q0,6.15,3,9.3,3,3.3,8.7,3.3a17.3,17.3,0,0,0,10.6-3.5l4.2,9.8Z" fill="#011935"/><path d="M727.9,60h-3.6V57.9h9.9V60h-3.6v9.2H728V60Z" fill="#011935"/><path d="M745.1,69.2V62.4L741.7,68h-1.2l-3.3-5.5v6.7h-2.5V57.8h2.2l4.3,7.1,4.2-7.1h2.2V69.2h-2.4Z" fill="#011935"/><path d="M245.3,176.5h-4.9v-2.3h12.5v2.3H248v12.4h-2.7V176.5Z" fill="#011935"/><path d="M270.2,174.2v14.7h-2.7v-6.3h-7.6v6.3h-2.7V174.2h2.7v6.1h7.6v-6.1Z" fill="#011935"/><path d="M287.3,186.6v2.3h-11V174.2H287v2.3h-8v3.8h7.1v2.2H279v4.1h8.3Z" fill="#011935"/><path d="M310.1,185.5h-7.3l-1.4,3.4h-2.8l6.6-14.7h2.7l6.6,14.7h-2.9l-1.5-3.4Zm-.9-2.1-2.8-6.4-2.8,6.4h5.5Z" fill="#011935"/><path d="M318.5,174.2h2.7v14.7h-2.7Z" fill="#011935"/><path d="M338.1,188.1a7.266,7.266,0,0,1-2.8-2.7,7.085,7.085,0,0,1-1-3.9,7.317,7.317,0,0,1,1-3.9,8.059,8.059,0,0,1,2.8-2.7,7.674,7.674,0,0,1,4-1,7.787,7.787,0,0,1,3.3.6,6.422,6.422,0,0,1,2.5,1.8l-1.8,1.7a5.383,5.383,0,0,0-3.9-1.7,3.974,3.974,0,0,0-2.7.7,5.463,5.463,0,0,0-1.9,1.8,6.008,6.008,0,0,0-.7,2.7,4.953,4.953,0,0,0,.7,2.7,4.144,4.144,0,0,0,1.9,1.8,6.008,6.008,0,0,0,2.7.7,5.066,5.066,0,0,0,3.9-1.7l1.8,1.7a6.422,6.422,0,0,1-2.5,1.8,8.808,8.808,0,0,1-3.3.6,8.464,8.464,0,0,1-4-1Z" fill="#011935"/><path d="M355.3,188.1a8.059,8.059,0,0,1-2.8-2.7,8.1,8.1,0,0,1,0-7.8,6.62,6.62,0,0,1,2.8-2.7,8.041,8.041,0,0,1,4.1-1,8.3,8.3,0,0,1,4.1,1,8.059,8.059,0,0,1,2.8,2.7,7.085,7.085,0,0,1,1,3.9,7.317,7.317,0,0,1-1,3.9,7.77,7.77,0,0,1-6.9,3.7A8.3,8.3,0,0,1,355.3,188.1Zm6.7-2a4.455,4.455,0,0,0,1.8-1.8,6.008,6.008,0,0,0,.7-2.7,4.953,4.953,0,0,0-.7-2.7,4.455,4.455,0,0,0-1.8-1.8,5.593,5.593,0,0,0-2.6-.7,4.618,4.618,0,0,0-2.6.7,6.173,6.173,0,0,0-1.8,1.8,6.008,6.008,0,0,0-.7,2.7,4.953,4.953,0,0,0,.7,2.7,4.455,4.455,0,0,0,1.8,1.8,5.94,5.94,0,0,0,2.6.7A4.618,4.618,0,0,0,362,186.1Z" fill="#011935"/><path d="M385.8,188.9v-9.7l-4.9,8.1h-1.2l-4.8-7.9V189h-2.6V174.3h2.2l5.8,9.7,5.7-9.7h2.2V189h-2.6Z" fill="#011935"/><path d="M408.1,188.9v-9.7l-4.9,8.1H402l-4.8-7.9V189h-2.6V174.3h2.2l5.8,9.7,5.7-9.7h2.2V189h-2.6Z" fill="#011935"/><path d="M427.8,186.6v2.3h-11V174.2h10.7v2.3h-8v3.8h7.1v2.2h-7.1v4.1h8.3Z" fill="#011935"/><path d="M442.7,188.9l-3-4.3h-3.9v4.3h-2.7V174.2h6a8.109,8.109,0,0,1,3.3.6,4.89,4.89,0,0,1,2.2,1.8,5.117,5.117,0,0,1,.8,2.8,5.467,5.467,0,0,1-.8,2.9,4.674,4.674,0,0,1-2.3,1.8l3.4,4.8h-3Zm-1-11.6a4.139,4.139,0,0,0-2.7-.8h-3.2v5.9H439a4.139,4.139,0,0,0,2.7-.8,3.139,3.139,0,0,0,0-4.4Z" fill="#011935"/><path d="M453.4,188.1a7.266,7.266,0,0,1-2.8-2.7,7.085,7.085,0,0,1-1-3.9,7.317,7.317,0,0,1,1-3.9,8.059,8.059,0,0,1,2.8-2.7,7.674,7.674,0,0,1,4-1,7.787,7.787,0,0,1,3.3.6,6.422,6.422,0,0,1,2.5,1.8l-1.8,1.7a5.383,5.383,0,0,0-3.9-1.7,3.974,3.974,0,0,0-2.7.7,6.558,6.558,0,0,0-1.9,1.8,4.733,4.733,0,0,0-.7,2.7,4.953,4.953,0,0,0,.7,2.7,4.689,4.689,0,0,0,1.9,1.8,6.008,6.008,0,0,0,2.7.7,5.066,5.066,0,0,0,3.9-1.7l1.8,1.7a6.422,6.422,0,0,1-2.5,1.8,8.809,8.809,0,0,1-3.3.6,8.464,8.464,0,0,1-4-1Z" fill="#011935"/><path d="M468.1,174.2h2.7v14.7h-2.7Z" fill="#011935"/><path d="M486.5,185.5h-7.3l-1.4,3.4H475l6.6-14.7h2.7l6.6,14.7H488l-1.5-3.4Zm-.9-2.1-2.8-6.4-2.8,6.4h5.5Z" fill="#011935"/><path d="M494.8,174.2h2.7v12.4h7.7v2.3H494.8V174.2Z" fill="#011935"/><path d="M518.9,188.6a5.386,5.386,0,0,1-2.5-1.3l.9-2.1a6.6,6.6,0,0,0,2.2,1.2,8.51,8.51,0,0,0,2.6.5,5.684,5.684,0,0,0,2.4-.5,1.6,1.6,0,0,0,.8-1.4,1,1,0,0,0-.5-1,2.384,2.384,0,0,0-1.1-.6,16.658,16.658,0,0,0-1.9-.5,23.043,23.043,0,0,1-2.7-.8,5.674,5.674,0,0,1-1.8-1.2,3.334,3.334,0,0,1-.7-2.3,3.232,3.232,0,0,1,.7-2.2,4.09,4.09,0,0,1,2-1.6,8.109,8.109,0,0,1,3.3-.6,8.8,8.8,0,0,1,2.6.3,4.965,4.965,0,0,1,2.2,1l-.9,2.1a7.218,7.218,0,0,0-2-.9,7.47,7.47,0,0,0-2-.3,4.772,4.772,0,0,0-2.4.5,1.723,1.723,0,0,0-.8,1.4,1,1,0,0,0,.5,1,2.384,2.384,0,0,0,1.1.6,16.658,16.658,0,0,0,1.9.5,23.043,23.043,0,0,1,2.7.8,5.674,5.674,0,0,1,1.8,1.2,3.174,3.174,0,0,1,.7,2.3,3.232,3.232,0,0,1-.7,2.2,4.6,4.6,0,0,1-2,1.6,8.109,8.109,0,0,1-3.3.6,11.418,11.418,0,0,1-3.3-.5Z" fill="#011935"/><path d="M533,174.2h2.7v14.7H533Z" fill="#011935"/><path d="M555.4,188.9v-9.7l-4.9,8.1h-1.2l-4.8-7.9V189h-2.6V174.3h2.2l5.8,9.7,5.7-9.7h2.2V189h-2.6Z" fill="#011935"/><path d="M565.7,187.4a6.773,6.773,0,0,1-1.7-4.9v-8.3h2.7v8.2c0,2.9,1.2,4.3,3.7,4.3s3.7-1.4,3.7-4.3v-8.2h2.7v8.3a6.772,6.772,0,0,1-1.7,4.9,7.347,7.347,0,0,1-9.4,0Z" fill="#011935"/><path d="M582.9,174.2h2.7v12.4h7.7v2.3H582.9Z" fill="#011935"/><path d="M607.3,185.5H600l-1.4,3.4h-2.8l6.6-14.7h2.7l6.6,14.7h-2.9l-1.5-3.4Zm-.9-2.1-2.8-6.4-2.8,6.4h5.5Z" fill="#011935"/><path d="M617.9,176.5H613v-2.3h12.5v2.3h-4.9v12.4h-2.7V176.5Z" fill="#011935"/><path d="M632.3,188.1a8.059,8.059,0,0,1-2.8-2.7,8.1,8.1,0,0,1,0-7.8,6.62,6.62,0,0,1,2.8-2.7,9.194,9.194,0,0,1,4.1-1,8.3,8.3,0,0,1,4.1,1,7.286,7.286,0,0,1,2.8,2.7,7.085,7.085,0,0,1,1,3.9,7.317,7.317,0,0,1-1,3.9,7.77,7.77,0,0,1-6.9,3.7A8.3,8.3,0,0,1,632.3,188.1Zm6.7-2a4.455,4.455,0,0,0,1.8-1.8,5.68,5.68,0,0,0,.7-2.7,4.953,4.953,0,0,0-.7-2.7,4.455,4.455,0,0,0-1.8-1.8,5.94,5.94,0,0,0-2.6-.7,4.618,4.618,0,0,0-2.6.7,4.455,4.455,0,0,0-1.8,1.8,6.007,6.007,0,0,0-.7,2.7,4.953,4.953,0,0,0,.7,2.7,5.162,5.162,0,0,0,1.8,1.8,5.94,5.94,0,0,0,2.6.7A4.618,4.618,0,0,0,639,186.1Z" fill="#011935"/><path d="M659,188.9l-3-4.3h-3.9v4.3h-2.7V174.2h6a8.109,8.109,0,0,1,3.3.6,4.89,4.89,0,0,1,2.2,1.8,5.117,5.117,0,0,1,.8,2.8,5.467,5.467,0,0,1-.8,2.9,4.674,4.674,0,0,1-2.3,1.8l3.4,4.8h-3Zm-1-11.6a4.138,4.138,0,0,0-2.7-.8h-3.2v5.9h3.2a4.139,4.139,0,0,0,2.7-.8,3.139,3.139,0,0,0,0-4.4Z" fill="#011935"/></g></svg>